<?xml version="1.0" encoding="utf-8"?>
<!-- Generator: Adobe Illustrator 22.1.0, SVG Export Plug-In . SVG Version: 6.00 Build 0)  -->
<svg version="1.1" id="Layer_1" xmlns="http://www.w3.org/2000/svg" xmlns:xlink="http://www.w3.org/1999/xlink" x="0px" y="0px"
	 viewBox="0 0 194.8 170.4" style="enable-background:new 0 0 194.8 170.4;" xml:space="preserve">
<style type="text/css">
	.st0{fill:#001427;}
	.st1{fill:#FFFFFF;}
</style>
<title>Artboard 4</title>
<g id="concept_3">
	<rect x="46.7" y="46.4" class="st0" width="102" height="103"/>
	<path class="st1" d="M180.3,48.9v93.2c0,8.6-7,15.5-15.5,15.5H30c-8.6,0-15.5-7-15.6-15.5V48.9c0-8.6,7-15.5,15.6-15.5h28.5l4-10.7
		c2.3-6,8-10,14.5-10.1h40.6c6.5,0,12.3,4,14.5,10.1l4,10.7h28.5C173.2,33.4,180.2,40.3,180.3,48.9L180.3,48.9z M136.3,95.6
		c0-21.5-17.4-38.9-38.9-38.9S58.5,74.1,58.5,95.6s17.4,38.9,38.9,38.9C118.8,134.4,136.2,117,136.3,95.6L136.3,95.6z M125.9,95.6
		c0,15.7-12.7,28.5-28.5,28.5s-28.5-12.7-28.5-28.5c0-15.7,12.7-28.5,28.5-28.5l0,0C113.1,67.1,125.8,79.8,125.9,95.6L125.9,95.6z"
		/>
	<polygon class="st0" points="112.8,107.2 93.3,124.2 86.5,107.2 92.4,107.2 98.5,92.4 79,92.4 90,59.4 103.8,59.4 96.2,82.3 
		116.3,82.3 105.4,107.2 	"/>
</g>
</svg>
