<svg xmlns="http://www.w3.org/2000/svg" viewBox="0 0 194.75 170.4"><defs><style>.cls-1{fill:#001427;}.cls-2{fill:#fff;}</style></defs><title>Artboard 4</title><g id="concept_3" data-name="concept 3"><rect class="cls-1" x="46.71" y="46.37" width="102" height="103"/><path class="cls-2" d="M180.26,48.94v93.25a15.54,15.54,0,0,1-15.54,15.54H30a15.55,15.55,0,0,1-15.55-15.54V48.94A15.55,15.55,0,0,1,30,33.4H58.52l4-10.66A15.53,15.53,0,0,1,77,12.67h40.63a15.52,15.52,0,0,1,14.54,10.07l4,10.66h28.49A15.54,15.54,0,0,1,180.26,48.94Zm-44,46.62a38.86,38.86,0,1,0-38.86,38.86A38.89,38.89,0,0,0,136.23,95.56Zm-10.36,0a28.5,28.5,0,1,1-28.5-28.49A28.54,28.54,0,0,1,125.87,95.56Z"/><polygon class="cls-1" points="112.83 107.18 93.33 124.2 86.49 107.18 92.43 107.18 98.53 92.42 79.03 92.42 90 59.37 103.8 59.37 96.18 82.33 116.33 82.33 105.41 107.22 112.83 107.22 112.83 107.18"/></g></svg>