<?xml version="1.0" encoding="utf-8"?>
<!-- Generator: Adobe Illustrator 22.1.0, SVG Export Plug-In . SVG Version: 6.00 Build 0)  -->
<svg version="1.1" id="Layer_1" xmlns="http://www.w3.org/2000/svg" xmlns:xlink="http://www.w3.org/1999/xlink" x="0px" y="0px"
	 viewBox="0 0 1000.2 981.3" style="enable-background:new 0 0 1000.2 981.3;" xml:space="preserve">
<style type="text/css">
	.st0{display:none;fill:#3F3F3F;}
	.st1{fill:#001427;}
	.st2{fill:#FFFFFF;}
	.st3{font-family:'MrEavesXLModOT-Thin';}
	.st4{font-size:175.3463px;}
</style>
<rect x="-12.4" y="-35.5" class="st0" width="1048.6" height="1050"/>
<title>Artboard 4</title>
<g id="concept_3">
	<rect x="204" y="200" class="st1" width="575.8" height="581.5"/>
	<path class="st2" d="M958.2,214.1v526.1c0,48.5-39.5,87.5-87.5,87.5h-761c-48.5,0-87.5-39.5-88.1-87.5V214.1
		c0-48.5,39.5-87.5,88.1-87.5h160.9l22.6-60.4c13-33.9,45.2-56.5,81.9-57h229.2c36.7,0,69.4,22.6,81.9,57l22.6,60.4h160.9
		C918.1,126.6,957.6,165.6,958.2,214.1L958.2,214.1z M709.8,477.8c0-121.4-98.2-219.6-219.6-219.6s-219.6,98.2-219.6,219.6
		s98.2,219.6,219.6,219.6C611,696.8,709.2,598.6,709.8,477.8L709.8,477.8z M651.1,477.8c0,88.6-71.7,160.9-160.9,160.9
		S329.3,567,329.3,477.8c0-88.6,71.7-160.9,160.9-160.9l0,0C578.8,316.9,650.5,388.6,651.1,477.8L651.1,477.8z"/>
	<polygon class="st1" points="577.1,543.3 467.1,639.2 428.7,543.3 462,543.3 496.4,459.7 386.3,459.7 448.4,273.4 526.3,273.4 
		483.4,402.7 596.9,402.7 535.4,543.3 	"/>
</g>
<text transform="matrix(1 0 0 1 28.0291 962.6829)" class="st2 st3 st4">Mirrorless Shot</text>
</svg>
